<svg aria-hidden="true" style="position:absolute;width:0;height:0;overflow:hidden" xmlns="http://www.w3.org/2000/svg"><defs>
<symbol id="icon-car" viewBox="0 0 32 32"><path fill="#156963" style="fill:var(--color1, #156963)" d="M8.667 25.333H6a.667.667 0 1 1 0-1.334h2.667a.667.667 0 1 1 0 1.334zm21.666 0h-1.667a.667.667 0 1 1 0-1.334h1.113l.899-4.789c-.012-2.451-2.105-4.544-4.679-4.544h-4.377l-2.121 9.333h3.832a.667.667 0 1 1 0 1.334h-4.667a.667.667 0 0 1-.65-.818l-.001.005 2.424-10.667c.069-.3.334-.52.65-.52h4.909c3.308 0 6 2.692 6 6l-1.012 5.456a.665.665 0 0 1-.654.544h-.001z"/><path fill="#156963" style="fill:var(--color1, #156963)" d="M26 28c-1.837 0-3.333-1.495-3.333-3.333s1.496-3.333 3.333-3.333 3.333 1.495 3.333 3.333S27.837 28 26 28zm0-5.333c-1.103 0-2 .897-2 2s.897 2 2 2 2-.897 2-2-.897-2-2-2zM11.333 28C9.496 28 8 26.505 8 24.667s1.496-3.333 3.333-3.333 3.333 1.495 3.333 3.333S13.17 28 11.333 28zm0-5.333c-1.103 0-2 .897-2 2s.897 2 2 2 2-.897 2-2-.897-2-2-2zm-2.666-9.334H3.334a.667.667 0 1 1 0-1.334h5.333a.667.667 0 1 1 0 1.334zm0 4H2a.667.667 0 1 1 0-1.334h6.667a.667.667 0 1 1 0 1.334zm0 4h-8a.667.667 0 1 1 0-1.334h8a.667.667 0 1 1 0 1.334z"/><path fill="#156963" style="fill:var(--color1, #156963)" d="M18.667 25.333H14a.667.667 0 1 1 0-1.334h4.135l3.029-13.333H6a.667.667 0 1 1 0-1.334h16a.667.667 0 0 1 .65.818l.001-.005-3.333 14.667a.667.667 0 0 1-.65.52z"/></symbol>
<symbol id="icon-dollar-symbol" viewBox="0 0 32 32"><path fill="#156963" style="fill:var(--color1, #156963)" d="M16 32c8.823 0 16-7.177 16-16v-.029c0-2.214-.453-4.323-1.271-6.238l.039.104a.632.632 0 1 0-1.167.492l-.002-.004c.717 1.667 1.133 3.608 1.133 5.646v.032-.002c0 8.125-6.609 14.735-14.734 14.735S1.263 24.126 1.263 16.001 7.873 1.266 15.998 1.266h.018c1.731 0 3.392.299 4.934.849l-.103-.032a.632.632 0 0 0 .421-1.194l-.004-.001C19.701.326 17.897.001 16.017.001h-.02.001c-8.823 0-16 7.177-16 16s7.177 16 16 16z"/><path fill="#156963" style="fill:var(--color1, #156963)" d="M22.273 4.115a.633.633 0 0 0-.894.894l2.945 2.945a.632.632 0 0 0 .884.01l5.191-4.958a.634.634 0 0 0-.418-1.109.63.63 0 0 0-.456.194l-4.744 4.531-2.507-2.507zM16 9.88a2.71 2.71 0 0 1 2.706 2.705.633.633 0 0 0 1.266 0 3.979 3.979 0 0 0-3.315-3.917l-.023-.003V7.412a.633.633 0 0 0-1.266 0v1.253a3.977 3.977 0 0 0-3.331 3.919A3.97 3.97 0 0 0 16 16.555h.016a2.705 2.705 0 0 1 .016 5.41H16l-.031.001a2.71 2.71 0 0 1-2.675-2.705.633.633 0 0 0-1.266 0 3.978 3.978 0 0 0 3.315 3.917l.023.003v1.405a.633.633 0 0 0 1.266 0v-1.405a3.977 3.977 0 0 0 3.347-3.921 3.971 3.971 0 0 0-3.971-3.971h-.009l-.074.001a2.707 2.707 0 1 1 .077-5.413h-.004z"/></symbol>
<symbol id="icon-headphones" viewBox="0 0 32 32"><path fill="#156963" style="fill:var(--color1, #156963)" d="M16 0C8.246 0 1.937 6.309 1.937 14.063v7.624A2.816 2.816 0 0 0 4.749 24.5h1.099a2.822 2.822 0 0 0 2.651 1.875 2.816 2.816 0 0 0 2.813-2.813v-7.623A2.816 2.816 0 0 0 8.5 13.127a2.819 2.819 0 0 0-2.645 1.854l-.006.02H4.75c-.329 0-.644.057-.937.161v-1.099C3.813 7.343 9.28 1.875 16 1.875s12.187 5.468 12.187 12.188v1.099a2.751 2.751 0 0 0-.936-.161H26.151a2.822 2.822 0 0 0-2.651-1.875 2.816 2.816 0 0 0-2.813 2.813v7.625a2.816 2.816 0 0 0 3.649 2.686l-.02.005a2.823 2.823 0 0 1-2.692 1.996H18.65a2.822 2.822 0 0 0-2.651-1.875 2.816 2.816 0 0 0-2.813 2.813 2.816 2.816 0 0 0 2.812 2.812 2.817 2.817 0 0 0 2.645-1.856l.006-.02h2.973a4.693 4.693 0 0 0 4.688-4.686v-.938h.937a2.816 2.816 0 0 0 2.813-2.812v-7.625C30.06 6.31 23.751.001 15.997.001zM7.563 15.937a.938.938 0 0 1 1.874 0v7.625a.938.938 0 0 1-1.874 0v-7.625zm-2.813.938h.937v5.75H4.75a.938.938 0 0 1-.937-.938v-3.874c0-.517.42-.938.937-.938zM16 30.125a.939.939 0 0 1-.002-1.876H16a.938.938 0 0 1 0 1.875zm8.437-6.562a.938.938 0 0 1-1.874 0v-7.625a.938.938 0 0 1 1.874 0v7.625zm3.75-1.876c0 .517-.42.938-.937.938h-.937v-5.751h.937c.517 0 .937.421.937.938v3.875z"/></symbol>
<symbol id="icon-left-outline" viewBox="0 0 32 32"><path d="M25.333 14.667H9.52l4.84-5.814a1.335 1.335 0 0 0-2.052-1.708l-.001.002-6.667 8c-.045.063-.085.13-.12.2 0 .066 0 .106-.094.173-.06.153-.092.316-.093.48.001.164.033.327.093.48 0 .067 0 .107.094.173.035.07.075.137.12.2l6.667 8c.246.294.613.48 1.024.48h.005a1.333 1.333 0 0 0 1.023-2.188l.002.002-4.84-5.814h15.813a1.334 1.334 0 0 0 .002-2.666h-.003z"/></symbol>
<symbol id="icon-plant" viewBox="0 0 32 32"><path fill="#156963" style="fill:var(--color1, #156963)" d="M12.865 4.588C10.069 1.794 4.598 1.47.726 1.47a.727.727 0 0 0-.727.727c0 3.872.323 9.343 3.118 12.138 1.18 1.18 2.989 1.707 4.782 1.707 1.949 0 3.88-.623 4.965-1.709 2.082-2.082 2.464-7.283 0-9.745zm-1.027 8.72c-1.555 1.553-5.872 1.819-7.691 0C1.891 11.051 1.5 6.467 1.458 2.927c3.54.042 8.124.433 10.38 2.689 1.82 1.819 1.553 6.137 0 7.691zm19.435-8.964c-3.872 0-9.343.323-12.138 3.118-2.465 2.463-2.083 7.663 0 9.745 1.085 1.084 3.015 1.707 4.963 1.707 1.793 0 3.6-.526 4.783-1.705 2.794-2.796 3.118-8.267 3.118-12.139a.727.727 0 0 0-.727-.727zM27.852 16.18c-1.82 1.819-6.138 1.553-7.691 0s-1.819-5.871 0-7.691c2.257-2.257 6.841-2.647 10.381-2.689-.042 3.541-.433 8.125-2.689 10.38z"/><path fill="#156963" style="fill:var(--color1, #156963)" d="M26.027 10.633c-.172-.365-.663-.49-1.025-.321-5.572 2.62-8.31 7.188-9.553 11.885C13.91 12.212 9.46 9.168 7.572 7.876c-.235-.161-.418-.279-.52-.379a.727.727 0 0 0-1.027 1.028c.143.143.392.321.727.551 2.127 1.455 7.778 5.321 7.778 20.731v.001a.727.727 0 0 0 1.454.001c0-6.227 1.672-14.435 9.638-18.177l.117-.057c.362-.171.459-.575.288-.939z"/></symbol>
<symbol id="icon-right-outline" viewBox="0 0 32 32"><path fill="#f2f2f2" style="fill:var(--color2, #f2f2f2)" d="M2.425 17.939h23.001l-7.04 8.457a1.942 1.942 0 0 0 2.984 2.484l.002-.002 9.697-11.636c.065-.092.124-.189.175-.291 0-.096 0-.154.135-.252.087-.223.134-.46.137-.698a1.925 1.925 0 0 0-.141-.711l.005.013c0-.097 0-.156-.135-.252a2.325 2.325 0 0 0-.179-.298l.005.007-9.697-11.636a1.938 1.938 0 0 0-2.738-.251l.003-.002a1.936 1.936 0 0 0-.249 2.738l-.002-.003 7.04 8.457H2.427a1.939 1.939 0 1 0 0 3.878z"/></symbol>
<symbol id="icon-search" viewBox="0 0 32 32"><path stroke-linejoin="round" stroke-linecap="round" stroke-width="3.2" d="m14.667 25.333.131.001c5.891 0 10.667-4.776 10.667-10.667S20.689 4 14.798 4l-.138.001h.007C8.832 4.075 4.13 8.822 4.13 14.667S8.832 25.26 14.66 25.333h.007zM28 28l-5.8-5.8"/></symbol>
<symbol id="icon-shopping-cart" viewBox="0 0 32 32"><path stroke-linejoin="round" stroke-linecap="round" stroke-width="3.2" d="M12 29.333a1.333 1.333 0 0 0 0-2.666 1.333 1.333 0 0 0 0 2.666zm14.667 0a1.333 1.333 0 0 0 0-2.666 1.333 1.333 0 0 0 0 2.666zm-25.334-28h5.334l3.573 17.854a2.672 2.672 0 0 0 2.616 2.146l.054-.001h-.003H25.917a2.668 2.668 0 0 0 2.613-2.129l.003-.017 2.134-11.187H8"/></symbol></defs></svg>